<svg width="112" height="29" viewBox="0 0 112 29" fill="none" xmlns="http://www.w3.org/2000/svg">
<path d="M36.9381 24.0206V10.0394H39.0183L39.2164 11.1679H39.3155C39.9098 10.395 40.9198 9.84131 42.3261 9.84131C44.8998 9.84131 46.9605 11.9409 46.9605 15.0489C46.9605 18.1568 44.9016 20.2564 42.3261 20.2564C40.9393 20.2564 39.9699 19.6815 39.4552 19.0288H39.3561V24.0188H36.9399L36.9381 24.0206ZM44.5425 15.0506C44.5425 13.2287 43.3733 12.0807 41.9475 12.0807C40.5218 12.0807 39.3526 13.2287 39.3526 15.0506C39.3526 16.8726 40.5218 18.0206 41.9475 18.0206C43.3733 18.0206 44.5425 16.8726 44.5425 15.0506Z" fill="white"/>
<path d="M48.1871 15.0508C48.1871 12.0207 50.3646 9.84326 53.2762 9.84326C56.1877 9.84326 58.3652 12.0207 58.3652 15.0508C58.3652 18.0809 56.1877 20.2584 53.2762 20.2584C50.3646 20.2584 48.1871 18.0597 48.1871 15.0508ZM55.9295 15.0508C55.9295 13.2678 54.7408 12.0809 53.2762 12.0809C51.8115 12.0809 50.6034 13.2696 50.6034 15.0508C50.6034 16.8321 51.8115 18.0013 53.2762 18.0013C54.7408 18.0013 55.9295 16.8338 55.9295 15.0508Z" fill="white"/>
<path d="M60.1149 20.0601V6.19922H62.5311V20.0618H60.1149V20.0601Z" fill="white"/>
<path d="M71.5018 10.0393H74.0755L69.7187 22.218C69.2836 23.4261 68.6892 24.0204 67.1238 24.0204H64.7871V21.7828H66.7683C67.1256 21.7828 67.3219 21.6042 67.4422 21.307L67.6792 20.6543L63.6002 10.0393H66.1739L68.7689 16.991H69.1651L71.5018 10.0393Z" fill="white"/>
<path d="M74.5375 20.5553H76.9927C77.0918 21.2081 77.7445 22.0996 79.2905 22.0996C80.7356 22.0996 81.6873 21.1886 81.6873 19.8018V18.3956H81.5882C81.054 18.9704 80.0635 19.4852 78.7952 19.4852C76.2215 19.4852 74.2403 17.504 74.2403 14.6526C74.2403 11.8012 76.2215 9.84131 78.7952 9.84131C80.1218 9.84131 81.093 10.3755 81.7067 11.129H81.8058L82.0039 10.0394H84.1036V19.8018C84.1036 22.4551 82.3205 24.2187 79.2905 24.2187C75.9049 24.2187 74.5977 22.0005 74.5375 20.5553ZM81.6873 14.6544C81.6873 13.0907 80.5782 12.0011 79.172 12.0011C77.7657 12.0011 76.6761 13.0907 76.6761 14.6544C76.6761 16.2181 77.7852 17.3272 79.172 17.3272C80.5588 17.3272 81.6873 16.2375 81.6873 14.6544Z" fill="white"/>
<path d="M85.7828 15.0508C85.7828 12.0207 87.9603 9.84326 90.8719 9.84326C93.7834 9.84326 95.9609 12.0207 95.9609 15.0508C95.9609 18.0809 93.7834 20.2584 90.8719 20.2584C87.9603 20.2584 85.7828 18.0597 85.7828 15.0508ZM93.5252 15.0508C93.5252 13.2678 92.3365 12.0809 90.8719 12.0809C89.4072 12.0809 88.1991 13.2696 88.1991 15.0508C88.1991 16.8321 89.4072 18.0013 90.8719 18.0013C92.3365 18.0013 93.5252 16.8338 93.5252 15.0508Z" fill="white"/>
<path d="M97.643 20.0601V10.0394H99.7214L99.9195 10.9893H100.019C100.415 10.5347 101.405 9.84131 102.909 9.84131C105.206 9.84131 106.869 11.504 106.869 14.0388V20.0583H104.453V14.3555C104.453 13.0677 103.542 12.1373 102.295 12.1373C101.048 12.1373 100.058 13.1084 100.058 14.3555V20.0583H97.6412L97.643 20.0601Z" fill="white"/>
<path d="M22.874 18.8909L28.8138 15.4611C29.1287 15.2789 29.3233 14.941 29.3233 14.5784V7.71875C29.3233 7.35613 29.1287 7.01828 28.8138 6.83608L22.874 3.40624C22.5591 3.22405 22.1682 3.22582 21.8551 3.40624L15.9152 6.83608C15.6004 7.01828 15.4058 7.35613 15.4058 7.71875V19.977L11.2401 22.3809L7.07442 19.977V15.1675L11.2401 12.7636L13.9872 14.3502V11.1238L11.7495 9.83078C11.5956 9.74234 11.4188 9.69458 11.2401 9.69458C11.0614 9.69458 10.8846 9.74234 10.7307 9.83078L4.79081 13.2606C4.47595 13.4428 4.28137 13.7807 4.28137 14.1433V21.003C4.28137 21.3656 4.47595 21.7034 4.79081 21.8856L10.7307 25.3155C11.0455 25.4959 11.4347 25.4959 11.7495 25.3155L17.6894 21.8856C18.0043 21.7034 18.1988 21.3656 18.1988 21.003V8.74293L18.2731 8.70047L22.3628 6.33903L26.5285 8.74293V13.5525L22.3628 15.9564L19.6192 14.3732V17.5997L21.8533 18.8892C22.1682 19.0696 22.5591 19.0696 22.8722 18.8892L22.874 18.8909Z" fill="url(#paint0_linear_167_1068)"/>
<defs>
<linearGradient id="paint0_linear_167_1068" x1="4.2" y1="21.6751" x2="28.2478" y2="7.71698" gradientUnits="userSpaceOnUse">
<stop stop-color="#A726C1"/>
<stop offset="0.88" stop-color="#803BDF"/>
<stop offset="1" stop-color="#7B3FE4"/>
</linearGradient>
</defs>
</svg>
